<svg width="24" height="24" viewBox="0 0 24 24" fill="none" xmlns="http://www.w3.org/2000/svg">
<path d="M10.5542 21.4509C10.6355 21.4836 10.7168 21.5 10.798 21.5C11.0094 21.5 11.2207 21.4018 11.3508 21.2054L18.3248 11.0571C18.4711 10.8606 18.4874 10.5824 18.3736 10.3696C18.2598 10.1568 18.0322 10.0095 17.7884 10.0095L13.4641 9.97676L14.7159 3.29852C14.7809 3.00389 14.6183 2.6929 14.342 2.56195C14.0656 2.431 13.7405 2.51284 13.5454 2.75837L6.14865 12.1374C5.98609 12.3338 5.95357 12.612 6.06737 12.8412C6.18117 13.0704 6.40876 13.2177 6.66886 13.2177L11.4483 13.2504L10.164 20.7143C10.099 21.0253 10.2616 21.3363 10.5542 21.4509Z" fill="#402EEF"/>
<mask id="mask0_0_133" style="mask-type:luminance" maskUnits="userSpaceOnUse" x="6" y="2" width="13" height="20">
<path d="M10.5542 21.4509C10.6355 21.4836 10.7168 21.5 10.798 21.5C11.0094 21.5 11.2207 21.4018 11.3508 21.2054L18.3248 11.0571C18.4711 10.8606 18.4874 10.5824 18.3736 10.3696C18.2598 10.1568 18.0322 10.0095 17.7884 10.0095L13.4641 9.97676L14.7159 3.29852C14.7809 3.00389 14.6183 2.6929 14.342 2.56195C14.0656 2.431 13.7405 2.51284 13.5454 2.75837L6.14865 12.1374C5.98609 12.3338 5.95357 12.612 6.06737 12.8412C6.18117 13.0704 6.40876 13.2177 6.66886 13.2177L11.4483 13.2504L10.164 20.7143C10.099 21.0253 10.2616 21.3363 10.5542 21.4509Z" fill="white"/>
</mask>
<g mask="url(#mask0_0_133)">
<rect width="24" height="24" fill="#3D50DF"/>
</g>
</svg>
