<svg width="32" height="32" viewBox="0 0 32 32" fill="none" xmlns="http://www.w3.org/2000/svg">
<path opacity="0.3" fill-rule="evenodd" clip-rule="evenodd" d="M9.67492 25.2389L7.97185 27.2909C4.6359 24.5222 2.66666 20.4205 2.66666 16C2.66666 11.5856 4.63042 7.48903 7.95847 4.72025L9.66396 6.77022C6.93858 9.03762 5.33333 12.3863 5.33333 16C5.33333 19.6187 6.94306 22.9716 9.67492 25.2389ZM22.3251 25.2389L24.0281 27.2909C27.3641 24.5222 29.3333 20.4205 29.3333 16C29.3333 11.5856 27.3696 7.48903 24.0415 4.72025L22.336 6.77022C25.0614 9.03762 26.6667 12.3863 26.6667 16C26.6667 19.6187 25.0569 22.9716 22.3251 25.2389ZM20.6012 23.2039L18.9047 21.1465C20.4327 19.8865 21.3333 18.0183 21.3333 16C21.3333 13.9883 20.4386 12.1256 18.9192 10.8655L20.6215 8.81285C22.7455 10.5743 24 13.1861 24 16C24 18.8232 22.7371 21.4426 20.6012 23.2039ZM18.6667 16C18.6667 17.4728 17.4728 18.6667 16 18.6667C14.5272 18.6667 13.3333 17.4728 13.3333 16C13.3333 14.5272 14.5272 13.3333 16 13.3333C17.4728 13.3333 18.6667 14.5272 18.6667 16ZM11.3988 23.2039L13.0953 21.1465C11.5673 19.8865 10.6667 18.0183 10.6667 16C10.6667 13.9883 11.5614 12.1256 13.0808 10.8655L11.3785 8.81285C9.25454 10.5743 8 13.1861 8 16C8 18.8232 9.26285 21.4426 11.3988 23.2039Z" fill="#0015FF"/>
<mask id="mask0_927_88" style="mask-type:luminance" maskUnits="userSpaceOnUse" x="2" y="4" width="28" height="24">
<path fill-rule="evenodd" clip-rule="evenodd" d="M9.67492 25.2389L7.97185 27.2909C4.6359 24.5222 2.66666 20.4205 2.66666 16C2.66666 11.5856 4.63042 7.48903 7.95847 4.72025L9.66396 6.77022C6.93858 9.03762 5.33333 12.3863 5.33333 16C5.33333 19.6187 6.94306 22.9716 9.67492 25.2389ZM22.3251 25.2389L24.0281 27.2909C27.3641 24.5222 29.3333 20.4205 29.3333 16C29.3333 11.5856 27.3696 7.48903 24.0415 4.72025L22.336 6.77022C25.0614 9.03762 26.6667 12.3863 26.6667 16C26.6667 19.6187 25.0569 22.9716 22.3251 25.2389ZM20.6012 23.2039L18.9047 21.1465C20.4327 19.8865 21.3333 18.0183 21.3333 16C21.3333 13.9883 20.4386 12.1256 18.9192 10.8655L20.6215 8.81285C22.7455 10.5743 24 13.1861 24 16C24 18.8232 22.7371 21.4426 20.6012 23.2039ZM18.6667 16C18.6667 17.4728 17.4728 18.6667 16 18.6667C14.5272 18.6667 13.3333 17.4728 13.3333 16C13.3333 14.5272 14.5272 13.3333 16 13.3333C17.4728 13.3333 18.6667 14.5272 18.6667 16ZM11.3988 23.2039L13.0953 21.1465C11.5673 19.8865 10.6667 18.0183 10.6667 16C10.6667 13.9883 11.5614 12.1256 13.0808 10.8655L11.3785 8.81285C9.25454 10.5743 8 13.1861 8 16C8 18.8232 9.26285 21.4426 11.3988 23.2039Z" fill="white"/>
</mask>
<g mask="url(#mask0_927_88)">
<rect width="32" height="32" fill="white"/>
</g>
</svg>
