<svg width="32" height="32" viewBox="0 0 32 32" fill="none" xmlns="http://www.w3.org/2000/svg">
<path fill-rule="evenodd" clip-rule="evenodd" d="M27.4996 4C27.6368 4 27.7543 4.04672 27.8524 4.13969C27.9509 4.23302 27.9998 4.34325 28 4.47068C28 6.9117 27.6302 9.02208 26.8904 10.8015C26.1508 12.5809 24.9093 14.3478 23.1647 16.1029C22.3712 16.8873 21.4157 17.75 20.2987 18.6912L20.0048 24.2648C19.9852 24.4217 19.9069 24.549 19.7697 24.647L14.1258 27.9411C14.0573 27.9802 13.9789 28 13.8906 28C13.7731 28 13.6603 27.9558 13.5525 27.8678L12.612 26.9266C12.4846 26.7893 12.4455 26.6326 12.4943 26.4559L13.7436 22.3973L9.61372 18.2647L5.55722 19.515C5.52783 19.5248 5.48387 19.5298 5.42503 19.5298C5.28779 19.5298 5.17521 19.4857 5.08698 19.3974L4.14644 18.4563C3.97996 18.27 3.95536 18.0788 4.07298 17.8827L7.3651 12.2354C7.46306 12.0982 7.59041 12.02 7.74721 12L13.3173 11.706C14.2578 10.5884 15.1202 9.63245 15.9039 8.8383C17.746 7.00513 19.4998 5.7404 21.1653 5.04412C22.8309 4.34794 24.9424 4 27.4996 4ZM23.2968 10.1178C23.6888 10.1178 24.0221 9.98039 24.2962 9.70606C24.5709 9.43131 24.7077 9.09821 24.7077 8.70593C24.7077 8.3139 24.5705 7.98049 24.2962 7.70595C24.022 7.43141 23.6888 7.29425 23.2968 7.29425C22.9049 7.29425 22.5717 7.43157 22.2975 7.70595C22.0232 7.98049 21.886 8.3139 21.886 8.70593C21.886 9.09816 22.0234 9.43152 22.2975 9.70606C22.5719 9.98054 22.9049 10.1178 23.2968 10.1178Z" fill="black"/>
<mask id="mask0_927_68" style="mask-type:luminance" maskUnits="userSpaceOnUse" x="4" y="4" width="24" height="24">
<path fill-rule="evenodd" clip-rule="evenodd" d="M27.4996 4C27.6368 4 27.7543 4.04672 27.8524 4.13969C27.9509 4.23302 27.9998 4.34325 28 4.47068C28 6.9117 27.6302 9.02208 26.8904 10.8015C26.1508 12.5809 24.9093 14.3478 23.1647 16.1029C22.3712 16.8873 21.4157 17.75 20.2987 18.6912L20.0048 24.2648C19.9852 24.4217 19.9069 24.549 19.7697 24.647L14.1258 27.9411C14.0573 27.9802 13.9789 28 13.8906 28C13.7731 28 13.6603 27.9558 13.5525 27.8678L12.612 26.9266C12.4846 26.7893 12.4455 26.6326 12.4943 26.4559L13.7436 22.3973L9.61372 18.2647L5.55722 19.515C5.52783 19.5248 5.48387 19.5298 5.42503 19.5298C5.28779 19.5298 5.17521 19.4857 5.08698 19.3974L4.14644 18.4563C3.97996 18.27 3.95536 18.0788 4.07298 17.8827L7.3651 12.2354C7.46306 12.0982 7.59041 12.02 7.74721 12L13.3173 11.706C14.2578 10.5884 15.1202 9.63245 15.9039 8.8383C17.746 7.00513 19.4998 5.7404 21.1653 5.04412C22.8309 4.34794 24.9424 4 27.4996 4ZM23.2968 10.1178C23.6888 10.1178 24.0221 9.98039 24.2962 9.70606C24.5709 9.43131 24.7077 9.09821 24.7077 8.70593C24.7077 8.3139 24.5705 7.98049 24.2962 7.70595C24.022 7.43141 23.6888 7.29425 23.2968 7.29425C22.9049 7.29425 22.5717 7.43157 22.2975 7.70595C22.0232 7.98049 21.886 8.3139 21.886 8.70593C21.886 9.09816 22.0234 9.43152 22.2975 9.70606C22.5719 9.98054 22.9049 10.1178 23.2968 10.1178Z" fill="white"/>
</mask>
<g mask="url(#mask0_927_68)">
<rect width="32" height="32" fill="white"/>
</g>
</svg>
