<svg width="32" height="32" viewBox="0 0 32 32" fill="none" xmlns="http://www.w3.org/2000/svg">
<path fill-rule="evenodd" clip-rule="evenodd" d="M8 4C5.79086 4 4 5.79086 4 8V10.6667C4 12.8758 5.79086 14.6667 8 14.6667H24C26.2091 14.6667 28 12.8758 28 10.6667V8C28 5.79086 26.2091 4 24 4H8ZM9.33333 12C10.8061 12 12 10.8061 12 9.33333C12 7.86057 10.8061 6.66667 9.33333 6.66667C7.86057 6.66667 6.66667 7.86057 6.66667 9.33333C6.66667 10.8061 7.86057 12 9.33333 12ZM4 21.3333C4 19.1242 5.79086 17.3333 8 17.3333H24C26.2091 17.3333 28 19.1242 28 21.3333V24C28 26.2091 26.2091 28 24 28H8C5.79086 28 4 26.2091 4 24V21.3333ZM22.6667 25.3333C24.1394 25.3333 25.3333 24.1394 25.3333 22.6667C25.3333 21.1939 24.1394 20 22.6667 20C21.1939 20 20 21.1939 20 22.6667C20 24.1394 21.1939 25.3333 22.6667 25.3333Z" fill="#3D50DF"/>
<mask id="mask0_927_41" style="mask-type:luminance" maskUnits="userSpaceOnUse" x="4" y="4" width="24" height="24">
<path fill-rule="evenodd" clip-rule="evenodd" d="M8 4C5.79086 4 4 5.79086 4 8V10.6667C4 12.8758 5.79086 14.6667 8 14.6667H24C26.2091 14.6667 28 12.8758 28 10.6667V8C28 5.79086 26.2091 4 24 4H8ZM9.33333 12C10.8061 12 12 10.8061 12 9.33333C12 7.86057 10.8061 6.66667 9.33333 6.66667C7.86057 6.66667 6.66667 7.86057 6.66667 9.33333C6.66667 10.8061 7.86057 12 9.33333 12ZM4 21.3333C4 19.1242 5.79086 17.3333 8 17.3333H24C26.2091 17.3333 28 19.1242 28 21.3333V24C28 26.2091 26.2091 28 24 28H8C5.79086 28 4 26.2091 4 24V21.3333ZM22.6667 25.3333C24.1394 25.3333 25.3333 24.1394 25.3333 22.6667C25.3333 21.1939 24.1394 20 22.6667 20C21.1939 20 20 21.1939 20 22.6667C20 24.1394 21.1939 25.3333 22.6667 25.3333Z" fill="white"/>
</mask>
<g mask="url(#mask0_927_41)">
<rect width="32" height="32" fill="white"/>
</g>
</svg>
