<svg width="17" height="17" viewBox="0 0 17 17" fill="none" xmlns="http://www.w3.org/2000/svg">
<path fill-rule="evenodd" clip-rule="evenodd" d="M8.5 0C8.7346 0 8.93492 0.0830167 9.10095 0.24905C9.26698 0.415083 9.35 0.6154 9.35 0.85V7.65H16.15C16.3846 7.65 16.5849 7.73302 16.7509 7.89905C16.917 8.06508 17 8.2654 17 8.5C17 8.7346 16.917 8.93492 16.7509 9.10095C16.5849 9.26698 16.3846 9.35 16.15 9.35H9.35V16.15C9.35 16.3846 9.26698 16.5849 9.10095 16.7509C8.93492 16.917 8.7346 17 8.5 17C8.2654 17 8.06508 16.917 7.89905 16.7509C7.73302 16.5849 7.65 16.3846 7.65 16.15V9.35H0.85C0.6154 9.35 0.415083 9.26698 0.24905 9.10095C0.0830167 8.93492 0 8.7346 0 8.5C0 8.2654 0.0830167 8.06508 0.24905 7.89905C0.415083 7.73302 0.6154 7.65 0.85 7.65H7.65V0.85C7.65 0.6154 7.73302 0.415083 7.89905 0.24905C8.06508 0.0830167 8.2654 0 8.5 0Z" fill="#2C2C2C"/>
</svg>
