<svg width="42" height="27" viewBox="0 0 42 27" fill="none" xmlns="http://www.w3.org/2000/svg">
<g filter="url(#filter0_d_1_110)">
<path fill-rule="evenodd" clip-rule="evenodd" d="M37.7567 16.5091C37.4524 17.7393 36.4407 19.478 36.0973 20.1043C35.7542 20.7309 35.7186 20.4333 35.2538 21.1274C34.7893 21.8217 33.8277 22.3833 33.0313 22.4371C32.2346 22.4907 31.209 22.3623 29.6766 21.8254C28.1443 21.2885 26.047 20.9723 25.104 20.7507C24.161 20.5291 13.4447 18.1414 11.2558 17.5947C9.06682 17.0483 7.73888 16.4286 6.37088 15.898C5.00253 15.3678 4.2885 14.8142 4.04915 14.549C3.81009 14.2838 3.37859 11.9489 4.0085 9.26866C4.06099 9.04533 4.11345 8.82727 4.16589 8.61448C4.21366 8.40089 4.26382 8.18229 4.31638 7.95867C4.94629 5.27847 6.37269 3.3802 6.70478 3.24956C7.0373 3.1184 7.92308 2.94115 9.38446 3.07562C10.8456 3.21002 12.3104 3.24701 14.5137 3.73258C16.7169 4.21845 27.3749 6.85418 28.3179 7.07582C29.261 7.29745 31.2795 7.9486 32.8906 8.1505C34.5017 8.3521 35.4771 8.69391 36.1665 9.09716C36.8556 9.50005 37.4664 10.4309 37.573 11.2594C37.68 12.0879 37.8444 11.8376 37.8725 12.5512C37.901 13.2648 38.0322 15.2725 37.7567 16.5091Z" fill="url(#paint0_linear_1_110)"/>
<path fill-rule="evenodd" clip-rule="evenodd" d="M5.30139 15.4172C5.24943 15.29 5.26307 15.2036 5.00102 15.022C4.73898 14.8404 4.06296 14.4012 3.97014 14.0969C3.87668 13.7928 3.76533 13.019 3.76533 13.019L3.71608 12.986C3.7835 13.8422 3.85184 14.4313 3.99062 14.5851C4.12913 14.7389 4.6231 15.0612 5.30139 15.4172Z" fill="#94641D"/>
<path fill-rule="evenodd" clip-rule="evenodd" d="M5.28645 15.406C5.2342 15.2786 5.15376 15.1565 5.02963 15.0706C4.62931 14.7935 4.03257 14.4093 3.93946 14.1049C3.84657 13.8009 3.76533 13.019 3.76533 13.019L3.71608 12.986C3.7835 13.8422 3.85183 14.4313 3.99062 14.5851C4.12912 14.7389 4.6078 15.0502 5.28645 15.406Z" fill="#762022"/>
<path fill-rule="evenodd" clip-rule="evenodd" d="M3.71608 12.986C3.79047 13.8125 3.86358 14.3813 4.0034 14.5308C4.14294 14.6802 4.51817 14.9749 5.19812 15.3238C4.6125 14.909 4.16945 14.5983 4.02962 14.4489C3.89015 14.2992 3.79047 13.8125 3.71608 12.986Z" fill="#E05A60"/>
<path fill-rule="evenodd" clip-rule="evenodd" d="M36.2116 19.898C36.2116 19.898 35.6373 20.3357 35.4308 20.3771C34.394 20.5852 30.9867 21.0415 27.1809 20.2646C30.0302 21.1392 33.7018 21.056 36.0063 20.2609C36.0707 20.2385 36.1492 19.9211 36.2116 19.898Z" fill="#1F2222"/>
<path fill-rule="evenodd" clip-rule="evenodd" d="M37.8802 12.726C37.8802 12.726 37.8712 12.3078 37.415 11.9345C36.5794 11.2866 33.732 9.36036 29.9786 8.3607C32.9191 8.84683 36.1261 10.4545 37.8351 12.1929C37.8828 12.2417 37.8619 12.6492 37.8802 12.726Z" fill="#1F2222"/>
<path fill-rule="evenodd" clip-rule="evenodd" d="M13.5562 5.77485L13.5336 5.72118L13.5854 5.69582C13.6018 5.70215 19.3464 7.94129 24.7831 8.29778L24.8191 8.3422L24.7758 8.38166C19.3278 8.02435 13.5726 5.78119 13.5562 5.77485Z" fill="#000202"/>
<path fill-rule="evenodd" clip-rule="evenodd" d="M28.9323 7.66239C28.8223 7.59623 28.618 7.49177 28.3393 7.42626C26.0018 6.8769 18.4716 5.21163 17.7723 5.04726C16.9899 4.8361 13.7549 4.20447 13.1448 4.24714C13.4524 4.50206 14.922 5.66825 16.146 5.99871C17.5217 6.37009 21.9515 7.41121 23.1303 7.52763C24.2042 7.63366 28.2246 7.65884 28.9323 7.66239Z" fill="#000202"/>
<path fill-rule="evenodd" clip-rule="evenodd" d="M27.9001 7.50662C26.4108 7.16093 24.9165 6.83113 23.4247 6.49821C22.2037 6.22582 20.9826 5.95432 19.7615 5.68253C17.9344 5.27606 16.0722 4.7736 14.2259 4.51333C14.113 4.49732 13.9993 4.48176 13.8859 4.46876C14.6327 5.05978 15.3925 5.68147 16.1999 5.90099C16.6783 6.03142 17.1615 6.14961 17.6434 6.26659C18.303 6.42691 18.9643 6.58171 19.6265 6.73144C20.3356 6.89189 21.0468 7.04726 21.7598 7.18847C22.0454 7.24536 22.3315 7.2999 22.6191 7.34826C22.8183 7.38175 23.0216 7.41465 23.2235 7.43324C23.6073 7.46796 24.0054 7.47469 24.3918 7.48332C24.9485 7.49603 25.5058 7.50111 26.0632 7.50437C26.6752 7.50774 27.2875 7.50839 27.9001 7.50662Z" fill="#343534"/>
<path fill-rule="evenodd" clip-rule="evenodd" d="M22.2647 6.05286L21.3705 7.21821C20.985 7.13877 20.5682 7.04919 20.1419 6.9549L20.4841 5.65514C21.0378 5.77877 21.6419 5.91362 22.2647 6.05286Z" fill="#000204"/>
<path fill-rule="evenodd" clip-rule="evenodd" d="M22.0613 6.00505L21.167 7.1704C20.7812 7.09089 20.6633 7.07154 20.237 6.97725L20.5789 5.67743C21.1329 5.80112 21.4382 5.86574 22.0613 6.00505Z" fill="#000204"/>
<path fill-rule="evenodd" clip-rule="evenodd" d="M20.8307 6.99801L21.107 5.99753C20.9066 5.95258 20.7092 5.90867 20.5271 5.86805L20.264 6.87383C20.4359 6.91173 20.6339 6.95548 20.8307 6.99801ZM21.996 6.19623L21.3299 7.10449C21.1888 7.07506 21.0303 7.04121 20.8693 7.00647L21.1453 6.00621C21.4363 6.07119 21.7321 6.13731 21.996 6.19623Z" fill="#FDE61D"/>
<path fill-rule="evenodd" clip-rule="evenodd" d="M16.6033 6.11829L15.7769 4.61862C15.8291 4.62872 15.8814 4.63853 15.933 4.64878L16.7656 6.15952C16.7097 6.14547 16.6554 6.13175 16.6033 6.11829Z" fill="#1A1919"/>
<path fill-rule="evenodd" clip-rule="evenodd" d="M21.1366 5.80218L21.2438 5.34594L21.3035 5.36028L21.1965 5.81564L21.1366 5.80218Z" fill="#1A1919"/>
<path fill-rule="evenodd" clip-rule="evenodd" d="M13.1884 4.23693L13.1702 4.26025L13.1488 4.24158C13.1489 4.24004 13.1575 3.75431 13.7265 3.57702L13.7698 3.57976C13.146 3.80836 13.1884 4.23569 13.1884 4.23693Z" fill="#000202"/>
<path fill-rule="evenodd" clip-rule="evenodd" d="M27.9306 6.68029C27.7832 5.91541 27.4441 5.494 27.2317 5.27664C27.0195 5.05993 26.5886 5.16083 26.5886 5.16083L27.147 6.89738C27.147 6.89738 27.4943 6.84689 27.5971 7.02083C27.7 7.19447 27.6888 7.13911 27.3935 7.37762C27.098 7.61577 26.9684 7.75928 26.9684 7.75928C26.9684 7.75928 28.0348 7.80587 28.353 7.81027C28.4125 7.81123 29.0823 7.91563 28.9869 7.62901C28.9869 7.62901 28.0781 7.44488 27.9306 6.68029Z" fill="#FDE61D"/>
<path fill-rule="evenodd" clip-rule="evenodd" d="M11.3082 15.34L11.2641 15.378L11.2992 15.4234C11.3166 15.4254 17.4572 15.9795 22.4836 18.0821L22.5356 18.0581L22.5144 18.0038C17.4776 15.8969 11.3257 15.3416 11.3082 15.34Z" fill="#000202"/>
<path fill-rule="evenodd" clip-rule="evenodd" d="M25.9154 20.4989C25.7875 20.5092 25.5579 20.512 25.2792 20.4465C22.9417 19.8971 15.4581 18.0338 14.7587 17.8694C13.9643 17.7097 10.7865 16.8344 10.2594 16.5242C10.6483 16.4333 12.4835 16.0438 13.7266 16.2929C15.1237 16.5731 19.5536 17.6143 20.6607 18.0354C21.6694 18.4188 25.2801 20.1871 25.9154 20.4989Z" fill="#000202"/>
<path fill-rule="evenodd" clip-rule="evenodd" d="M24.9219 20.1786C23.4344 19.825 21.95 19.4544 20.4658 19.0879C19.2513 18.7882 18.0371 18.487 16.8227 18.1864C15.0058 17.7368 13.1149 17.3568 11.3458 16.7677C11.2376 16.7318 11.1289 16.6947 11.0213 16.6561C11.9535 16.4594 12.9106 16.2415 13.7314 16.4044C14.2177 16.501 14.703 16.6101 15.1865 16.72C15.8486 16.8703 16.5096 17.0263 17.1691 17.1875C17.8754 17.3597 18.5814 17.5371 19.2827 17.7283C19.5637 17.8049 19.8441 17.8835 20.1232 17.9683C20.3164 18.027 20.5131 18.0882 20.7021 18.1614C21.0612 18.3013 21.4206 18.4726 21.7705 18.6367C22.2745 18.8736 22.7758 19.117 23.2763 19.3624C23.8257 19.6323 24.3742 19.9044 24.9219 20.1786Z" fill="#343534"/>
<path fill-rule="evenodd" clip-rule="evenodd" d="M19.2288 18.9702L18.9473 17.5285C18.5668 17.4279 18.1537 17.3225 17.7304 17.2171L17.4575 18.5328C18.0083 18.6688 18.6089 18.8174 19.2288 18.9702Z" fill="#000204"/>
<path fill-rule="evenodd" clip-rule="evenodd" d="M19.0254 18.9224L18.7439 17.4807C18.3633 17.3801 18.2488 17.3448 17.8252 17.2394L17.5523 18.5551C18.1034 18.6911 18.4055 18.7696 19.0254 18.9224Z" fill="#000204"/>
<path fill-rule="evenodd" clip-rule="evenodd" d="M18.3659 17.4852L18.1677 18.5041C17.9683 18.4547 17.7722 18.4065 17.5909 18.3614L17.8037 17.3438C17.9741 17.3863 18.1708 17.4356 18.3659 17.4852ZM19.0521 18.7222L18.8603 17.6123C18.721 17.5755 18.564 17.5352 18.4043 17.4949L18.2061 18.5134C18.4951 18.5844 18.7897 18.6571 19.0521 18.7222Z" fill="#FFFFFE"/>
<path fill-rule="evenodd" clip-rule="evenodd" d="M14.1893 16.3898L12.7814 17.3644C12.8326 17.3786 12.8839 17.3928 12.9346 17.4066L14.3529 16.4252C14.2967 16.4129 14.2418 16.4012 14.1893 16.3898Z" fill="#1A1919"/>
<path fill-rule="evenodd" clip-rule="evenodd" d="M10.2939 16.5528L10.2879 16.5241L10.2605 16.5313C10.2599 16.5324 10.0513 16.9711 10.4816 17.3836L10.5217 17.4001C10.065 16.9179 10.2933 16.5542 10.2939 16.5528Z" fill="#000202"/>
<path fill-rule="evenodd" clip-rule="evenodd" d="M25.9607 20.5359C25.9607 20.5359 25.1889 20.3545 24.7163 20.9734C24.2434 21.5925 23.6546 22.0256 23.368 22.1254C23.0811 22.2251 22.7405 21.9428 22.7405 21.9428L23.9877 20.3711C23.9877 20.3711 24.276 20.571 24.4456 20.4611C24.6151 20.3515 24.5806 20.3961 24.4222 20.0512C24.2638 19.7058 24.212 19.52 24.212 19.52C24.212 19.52 25.1874 19.9532 25.474 20.091C25.5277 20.1166 26.1742 20.3216 25.9607 20.5359Z" fill="#FDE61D"/>
<path fill-rule="evenodd" clip-rule="evenodd" d="M31.1231 12.1903C31.1041 12.2711 31.1693 12.3562 31.2688 12.3796C31.3678 12.4029 31.4641 12.3557 31.4831 12.2749C31.5021 12.1942 31.4369 12.109 31.3378 12.0858C31.2383 12.0624 31.142 12.1096 31.1231 12.1903Z" fill="#000204"/>
<path fill-rule="evenodd" clip-rule="evenodd" d="M29.8561 17.581C29.8372 17.6617 29.9024 17.7469 30.0018 17.7703C30.1009 17.7935 30.1972 17.7464 30.2162 17.6656C30.2351 17.5849 30.1699 17.4997 30.0709 17.4764C29.9714 17.4531 29.8751 17.5002 29.8561 17.581Z" fill="#000204"/>
<path fill-rule="evenodd" clip-rule="evenodd" d="M9.51166 4.298L9.4916 4.34335L9.46669 4.32161C9.46662 4.32063 9.44016 3.96489 9.27681 3.92457C8.98954 3.85417 8.67684 3.80041 8.28499 3.74924C7.89487 3.69848 7.42361 3.64982 6.819 3.59053C6.6741 3.57622 6.54308 3.55313 6.42455 3.52335L6.5148 3.4709C6.61235 3.4919 6.71751 3.50891 6.83225 3.51999C7.43502 3.57933 7.90571 3.62785 8.29881 3.67883C8.69105 3.72961 9.00451 3.78402 9.29339 3.85529C9.48232 3.90162 9.51158 4.29702 9.51166 4.298Z" fill="#1F2222"/>
<path fill-rule="evenodd" clip-rule="evenodd" d="M6.99282 15.0154L6.99485 14.9706L6.96588 14.9777C6.96538 14.9786 6.79918 15.2587 6.64945 15.225C6.38589 15.1659 6.10856 15.0829 5.76781 14.9653C5.4284 14.8484 5.02395 14.6961 4.50594 14.4992C4.37565 14.4498 4.25446 14.4146 4.14129 14.3904L4.14165 14.3915L4.14183 14.392L4.14277 14.3932L4.1437 14.3944L4.14406 14.3954L4.15083 14.4066L4.15269 14.409L4.15334 14.4101L4.15417 14.4118L4.15482 14.4129L4.1564 14.4152L4.15723 14.4168L4.15798 14.4175L4.15892 14.4186L4.15975 14.4203L4.16011 14.4213L4.16198 14.4237L4.16449 14.4272L4.16503 14.4287L4.1669 14.4311L4.16716 14.4326L4.16838 14.4339L4.16913 14.4345L4.16967 14.4361L4.17126 14.4384L4.17219 14.4396L4.17302 14.4412L4.17395 14.4424L4.1746 14.4435L4.17554 14.4447L4.17618 14.4458L4.17712 14.447L4.17805 14.4482L4.17859 14.4498L4.18046 14.4521L4.18111 14.4532L4.18194 14.4549L4.18269 14.4555L4.18845 14.4646L4.18938 14.4658L4.19014 14.4664L4.19096 14.4681L4.1919 14.4692C4.28478 14.492 4.38345 14.5225 4.48817 14.562C5.00462 14.759 5.40861 14.9107 5.7505 15.0286C6.09154 15.1463 6.36973 15.2295 6.63444 15.2888C6.80784 15.3277 6.99261 15.0163 6.99282 15.0154Z" fill="#1F2222"/>
<path fill-rule="evenodd" clip-rule="evenodd" d="M30.5961 10.343C30.4035 8.72288 30.068 8.41892 30.068 8.41892C30.068 8.41892 28.9927 8.18231 27.5317 8.17632C26.0701 8.17049 24.8628 8.30442 24.8628 8.30442C25.4565 10.8111 24.206 16.1316 22.5579 18.1114C22.5579 18.1114 23.5791 18.7694 24.8904 19.4149C26.201 20.0603 27.2692 20.3275 27.2692 20.3275C27.2692 20.3275 27.7049 20.2051 28.599 18.8403C30.1366 16.4922 30.9267 13.1302 30.5961 10.343Z" fill="#000202"/>
<path fill-rule="evenodd" clip-rule="evenodd" d="M25.272 8.78479C25.5903 11.3514 24.5668 15.7062 23.1384 17.863C23.1116 17.9035 23.1028 17.9489 23.1122 17.9964C23.1216 18.0442 23.147 18.0808 23.1869 18.1045C23.7847 18.4611 24.4135 18.8045 25.0309 19.1087C25.62 19.3988 26.2413 19.6518 26.8663 19.8563C26.9274 19.8763 26.9914 19.8569 27.0346 19.8047C27.2891 19.4999 27.5233 19.1469 27.7289 18.8181C29.2628 16.3631 30.0869 12.8566 29.8071 9.9753C29.7696 9.58941 29.7171 9.16872 29.625 8.78272C29.6096 8.71677 29.5609 8.67092 29.4974 8.66126C28.8466 8.56629 28.1777 8.51606 27.521 8.51335C26.8301 8.51035 26.1198 8.53845 25.423 8.58989C25.3767 8.59357 25.3375 8.61474 25.3078 8.65335C25.2781 8.69166 25.2659 8.73621 25.272 8.78479Z" fill="#343534"/>
<path fill-rule="evenodd" clip-rule="evenodd" d="M29.0528 17.0449C28.9707 17.198 28.3063 18.4317 27.5616 19.834C27.5358 19.8822 27.4743 19.896 27.4265 19.8634C27.3816 19.8326 27.3653 19.7715 27.3898 19.7254C27.6232 19.2857 27.8459 18.836 28.0703 18.3911C28.2357 18.0628 28.401 17.7345 28.5658 17.4061C28.6411 17.2561 28.7153 17.1033 28.793 16.9532C28.8409 16.8667 28.8971 16.8313 28.947 16.8281C29.338 16.1811 29.7241 15.5301 30.1138 14.8825C30.0557 15.1203 29.9936 15.3565 29.9262 15.59C29.7824 15.8303 29.6384 16.0706 29.494 16.3105C29.3468 16.5549 29.2001 16.8001 29.0528 17.0449Z" fill="#000204"/>
<path fill-rule="evenodd" clip-rule="evenodd" d="M30.2066 11.9396C30.1814 12.1216 29.9745 13.5852 29.7494 15.2446C29.7414 15.3019 29.6857 15.3403 29.6266 15.3283C29.5708 15.317 29.5325 15.2646 29.5398 15.2102C29.6105 14.6901 29.6664 14.1643 29.7263 13.6425C29.7703 13.2578 29.8138 12.873 29.8569 12.4881C29.8771 12.3121 29.8943 12.1344 29.9167 11.9577C29.9325 11.8544 29.9751 11.7971 30.0232 11.774C30.1572 11.075 30.2866 10.3748 30.4184 9.67586C30.4605 9.86963 30.4947 10.0736 30.5195 10.2882C30.4714 10.542 30.4235 10.7958 30.3751 11.0496C30.3191 11.3462 30.2635 11.6432 30.2066 11.9396Z" fill="#000204"/>
<path fill-rule="evenodd" clip-rule="evenodd" d="M11.9032 10.4329C12.2402 8.95895 12.7827 7.07277 13.6364 5.69819C12.2752 5.1851 10.9143 4.67208 9.55312 4.15899C9.41056 4.10502 9.25551 4.15323 9.1616 4.28062C8.82942 4.73155 8.0649 6.04677 7.27571 9.34536C6.51295 12.6502 6.61151 14.1685 6.70804 14.7202C6.73545 14.8758 6.85279 14.988 7.00439 15.0035C8.45162 15.1505 9.89856 15.2974 11.3458 15.4443C11.1939 13.8331 11.5484 11.9027 11.9032 10.4329Z" fill="#343534"/>
<path fill-rule="evenodd" clip-rule="evenodd" d="M4.30997 8.64648C4.25655 8.86214 4.20452 9.07968 4.15217 9.30242C3.51584 12.01 3.99566 14.2657 4.15849 14.4463C4.43483 14.7528 5.19443 15.2802 6.42432 15.7571C6.69946 15.8636 6.97226 15.9737 7.25118 16.086C8.38225 16.5422 9.55159 17.0137 11.2923 17.4482C12.8288 17.832 18.6838 19.1491 22.1819 19.9359L24.086 20.3645L22.9874 21.7491C23.094 21.8089 23.2383 21.8632 23.3512 21.8237C23.5915 21.7407 24.1636 21.3331 24.6303 20.7228C24.6685 20.6722 24.7094 20.6273 24.7514 20.5857L24.8091 20.5282L25.1385 20.6038C25.4049 20.6664 25.7635 20.7364 26.1754 20.8171C27.2063 21.0184 28.6186 21.2945 29.7259 21.6829C31.0751 22.1553 32.123 22.3473 33.023 22.2866C33.7729 22.2358 34.6995 21.6899 35.1323 21.0434C35.3712 20.6862 35.5096 20.572 35.6209 20.4804C35.725 20.3948 35.8067 20.3268 35.9685 20.0318L36.0976 19.7986C36.5032 19.0704 37.346 17.5549 37.6135 16.4736C37.8547 15.3901 37.7753 13.6576 37.7367 12.8247L37.7249 12.5587C37.712 12.2226 37.6684 12.1255 37.6134 12.0025C37.5546 11.8706 37.4815 11.707 37.4267 11.2808C37.3273 10.5089 36.7412 9.60743 36.092 9.22819C35.3134 8.77264 34.2897 8.47747 32.8712 8.30005C31.7069 8.15417 30.3194 7.77227 29.3067 7.49364C28.902 7.3824 28.5498 7.28534 28.2834 7.22274L27.9548 7.14366L27.9287 7.06621C27.9098 7.01028 27.8931 6.9521 27.8812 6.88915C27.7354 6.1355 27.4047 5.51576 27.2268 5.33377C27.1432 5.24809 26.9897 5.23309 26.8676 5.23912L27.2344 6.96814L25.3809 6.51393C21.8848 5.6569 16.0338 4.22225 14.4812 3.87998C12.7291 3.49363 11.4722 3.39481 10.2563 3.29944C9.95656 3.27581 9.66331 3.25278 9.36946 3.22589C8.05622 3.10485 7.14123 3.23865 6.757 3.3899C6.53085 3.47876 5.09631 5.2852 4.46005 7.99244C4.40763 8.21547 4.35732 8.43342 4.30997 8.64648ZM3.86483 9.23489C3.91746 9.01098 3.96977 8.79226 4.02264 8.57895C4.06943 8.36824 4.12002 8.14912 4.17271 7.92491C4.78128 5.3355 6.21197 3.28226 6.65299 3.1087C6.80293 3.04999 7.63978 2.76356 9.39918 2.92528C9.69117 2.95235 9.98348 2.97547 10.2818 2.99876C11.4503 3.09074 12.7745 3.19483 14.5462 3.58519C16.1023 3.92826 21.9556 5.36345 25.4526 6.22069L26.8456 6.56204L26.5132 4.99769L26.6573 4.96395C26.7095 4.95204 27.1753 4.85222 27.4371 5.11995C27.6811 5.36924 28.0214 6.05263 28.1711 6.82829L28.1849 6.88857L28.3525 6.92889C28.6226 6.99237 28.9762 7.08976 29.3863 7.20258C30.3905 7.47889 31.766 7.85737 32.9099 8.00094C34.3685 8.18343 35.4274 8.49027 36.2406 8.96606C36.9722 9.3935 37.608 10.3702 37.7196 11.2383C37.7687 11.6204 37.8294 11.7556 37.8825 11.8751C37.9453 12.0157 38.0048 12.1485 38.0204 12.5438L38.0321 12.8076C38.0709 13.6536 38.1517 15.414 37.9008 16.5411C37.6226 17.6655 36.7661 19.2056 36.3545 19.9455L36.2264 20.1768C36.0364 20.5235 35.924 20.6161 35.8052 20.7141C35.7043 20.7974 35.5897 20.8917 35.3756 21.2116C34.889 21.9391 33.8847 22.5303 33.0393 22.5875C32.099 22.6508 31.0146 22.454 29.6274 21.9679C28.5393 21.5866 27.1392 21.313 26.117 21.1131C25.6996 21.0315 25.3396 20.9611 25.0695 20.8976L24.9015 20.8588L24.8627 20.9064C24.3826 21.5343 23.7738 21.9947 23.4443 22.1092C23.0906 22.2323 22.7179 21.9357 22.6765 21.9015L22.5626 21.8071L23.5571 20.5546L22.1154 20.2303C18.6161 19.4433 12.7592 18.1257 11.2193 17.7411C9.45903 17.3017 8.22711 16.805 7.14006 16.3666C6.86252 16.2548 6.59057 16.145 6.31709 16.0392C4.66956 15.4002 4.04813 14.7714 3.94011 14.6517C3.62257 14.2999 3.25626 11.8243 3.86483 9.23489Z" fill="#1A1919"/>
<path fill-rule="evenodd" clip-rule="evenodd" d="M4.15217 9.30242C4.20452 9.07968 4.25655 8.86214 4.30997 8.64648C4.35732 8.43342 4.40763 8.21547 4.46005 7.99244C4.70867 6.93458 5.07937 6.01394 5.45203 5.27981C5.98238 4.27204 6.46575 3.7506 6.84242 3.48315C6.843 3.48329 6.84357 3.48342 6.84414 3.48356C7.44218 3.57078 7.90853 3.64038 8.29541 3.70494C8.68401 3.76992 8.99515 3.83033 9.28264 3.89976C9.40627 3.92975 9.46741 4.07342 9.48988 4.14165C9.36648 4.12101 9.2417 4.172 9.1616 4.28062C8.82943 4.73155 8.0649 6.04677 7.27571 9.34536C6.51295 12.6502 6.61151 14.1685 6.70804 14.7202C6.7319 14.8561 6.82472 14.9591 6.94889 14.9933C6.90599 15.0378 6.79371 15.1388 6.67605 15.1118C6.41272 15.0517 6.13398 14.9748 5.79025 14.8698C5.4479 14.7655 5.03891 14.6324 4.51495 14.4609C4.39475 14.4215 4.28257 14.3905 4.17784 14.3665C4.08489 14.1595 4.01069 13.9334 3.95272 13.695C3.80316 12.7832 3.71846 11.1478 4.15217 9.30242ZM4.19744 14.4096L4.20062 14.4128L4.20163 14.4136L4.20243 14.4141L4.20337 14.4153L4.20438 14.4161C4.29734 14.4386 4.39658 14.4666 4.50248 14.5011C5.02493 14.6726 5.43341 14.8052 5.77829 14.9104C6.1223 15.0154 6.40191 15.0926 6.66638 15.1529C6.829 15.1899 6.97662 15.0237 6.99464 15.0025C6.99787 15.0029 7.00117 15.0031 7.00439 15.0035C8.45162 15.1505 9.89856 15.2974 11.3458 15.4443C11.3453 15.4386 11.3448 15.4332 11.3442 15.4278C11.9122 15.4829 17.7022 16.0818 22.4836 18.0821L22.5356 18.0581L22.5144 18.0038C17.6711 15.9777 11.7972 15.3867 11.3369 15.3427C11.2141 13.8192 11.5276 12.0287 11.8597 10.6156C11.8742 10.5539 11.8884 10.4933 11.9032 10.4329C11.9167 10.3729 11.9311 10.3117 11.9455 10.2503C12.2777 8.8372 12.7942 7.0947 13.5832 5.78522C13.6916 5.82684 14.1232 5.99028 14.7918 6.21719L23.2454 17.0583C23.0274 17.467 22.7967 17.8242 22.5579 18.1114C22.5579 18.1114 23.5791 18.7694 24.8904 19.4149C24.9942 19.466 25.0964 19.5148 25.1968 19.561L25.6716 20.1703C25.5757 20.1279 25.492 20.0996 25.474 20.091C25.1874 19.9532 24.212 19.52 24.212 19.52C24.212 19.52 24.229 19.5816 24.2739 19.7001C22.9674 19.0693 21.2968 18.277 20.6607 18.0354C20.3298 17.9096 19.7023 17.7283 18.9473 17.5285C18.8508 17.5031 18.7523 17.4771 18.652 17.4511C18.5485 17.4243 18.4433 17.3971 18.3369 17.3699C18.3358 17.3696 18.3349 17.3694 18.3341 17.3692C18.3295 17.3681 18.3249 17.367 18.3203 17.3657C18.3169 17.3649 18.3134 17.364 18.3097 17.3632C18.3092 17.3627 18.3086 17.3626 18.3078 17.3624C18.2728 17.3536 18.2379 17.3447 18.203 17.3359C18.1003 17.3087 17.9847 17.279 17.8252 17.2394L17.8252 17.2406C17.8128 17.2377 17.8005 17.2345 17.7882 17.2316C16.2258 16.8418 14.5052 16.4492 13.7266 16.2929C12.4835 16.0438 10.6482 16.4332 10.2594 16.5242C10.2623 16.5261 10.2649 16.5277 10.2682 16.5294L10.2605 16.5313C10.2604 16.5316 10.243 16.5681 10.2286 16.6295C10.2007 16.7482 10.1837 16.9597 10.3209 17.1861C9.08987 16.8276 8.15822 16.4518 7.25118 16.086C6.97226 15.9736 6.69946 15.8636 6.42432 15.7571C5.94108 15.5697 5.53061 15.3747 5.19361 15.1882C5.15469 15.1409 5.09594 15.0877 5.00102 15.022C4.82084 14.8972 4.44518 14.6507 4.19766 14.4099L4.19744 14.4096ZM6.89842 3.44484C7.03667 3.3533 7.15953 3.29628 7.26323 3.26143C7.37152 3.24316 7.49173 3.22707 7.62301 3.2142C7.63536 3.21586 7.64161 3.21764 7.64161 3.21764L10.2474 3.29889C10.2504 3.29897 10.2533 3.29936 10.2563 3.29944C10.5948 3.32598 10.9366 3.35296 11.2911 3.38605L12.8743 3.75815L13.1658 4.13207C13.1652 4.13442 13.1647 4.13677 13.164 4.13942C13.1496 4.20083 13.149 4.24099 13.1488 4.24158L13.1549 4.24672C13.1512 4.2468 13.1479 4.24693 13.1448 4.24714C13.2031 4.29558 13.3037 4.37721 13.437 4.47955L14.6975 6.0961C14.1264 5.90049 13.7492 5.75852 13.6276 5.71226C13.6306 5.70737 13.6335 5.70278 13.6364 5.69819C12.2752 5.1851 10.9143 4.67208 9.55312 4.15899C9.54866 4.15732 9.5442 4.15565 9.53967 4.15428C9.52552 4.10227 9.45872 3.89494 9.29343 3.85516C9.00428 3.78503 8.69234 3.72413 8.30339 3.65938C7.92383 3.59591 7.47242 3.52858 6.89842 3.44484ZM10.2511 16.6667C10.2681 16.5941 10.2938 16.5534 10.2939 16.5528L10.2918 16.5423C10.6337 16.7235 11.739 17.066 12.7861 17.3611L12.7814 17.3644C12.8326 17.3786 12.8839 17.3928 12.9346 17.4066L12.9389 17.4039C13.7143 17.6202 14.4348 17.8041 14.7587 17.8694C15.0377 17.935 16.3958 18.2706 18.0762 18.6857C18.0837 18.6874 18.0914 18.6895 18.0988 18.6913C18.3757 18.7607 18.6388 18.8269 19.0254 18.9224L19.0251 18.9198C19.0927 18.9367 19.1606 18.9533 19.2288 18.9702C21.1212 19.437 23.1873 19.9452 24.5272 20.2672C24.5513 20.3169 24.5616 20.3454 24.5564 20.3677C24.5493 20.3977 24.5142 20.4167 24.4456 20.4611C24.3251 20.5391 24.1451 20.4612 24.0506 20.4092L24.086 20.3645L22.1819 19.9359C18.6838 19.1491 12.8289 17.832 11.2923 17.4482C10.9635 17.3663 10.655 17.2829 10.3632 17.1985C10.2191 16.968 10.2246 16.7793 10.2511 16.6667ZM13.1917 4.16513L13.2546 4.24566C13.2281 4.24501 13.2038 4.24489 13.1818 4.24561L13.1884 4.23693C13.1885 4.23664 13.1858 4.20934 13.1917 4.16513Z" fill="url(#paint1_linear_1_110)"/>
<path fill-rule="evenodd" clip-rule="evenodd" d="M17.8037 17.3438C17.9741 17.3863 18.1708 17.4356 18.3659 17.4852L18.1677 18.5041C17.9688 18.4549 17.7731 18.4067 17.5923 18.3617C17.5917 18.3616 17.5915 18.3615 17.5909 18.3614L17.8037 17.3438ZM18.4043 17.4949C18.5282 17.5262 18.6509 17.5578 18.7646 17.5873C18.7972 17.5956 18.8292 17.604 18.8603 17.6123L19.0521 18.7222C19.0292 18.7165 19.0063 18.7108 18.9831 18.705C18.7384 18.6444 18.4701 18.5785 18.2061 18.5134L18.4043 17.4949Z" fill="#FDE61D"/>
</g>
<defs>
<filter id="filter0_d_1_110" x="0.5369" y="0.8764" width="40.5391" height="25.7226" filterUnits="userSpaceOnUse" color-interpolation-filters="sRGB">
<feFlood flood-opacity="0" result="BackgroundImageFix"/>
<feColorMatrix in="SourceAlpha" type="matrix" values="0 0 0 0 0 0 0 0 0 0 0 0 0 0 0 0 0 0 127 0" result="hardAlpha"/>
<feOffset dy="1"/>
<feGaussianBlur stdDeviation="1.5"/>
<feColorMatrix type="matrix" values="0 0 0 0 0 0 0 0 0 0 0 0 0 0 0 0 0 0 0.5 0"/>
<feBlend mode="normal" in2="BackgroundImageFix" result="effect1_dropShadow_1_110"/>
<feBlend mode="normal" in="SourceGraphic" in2="effect1_dropShadow_1_110" result="shape"/>
</filter>
<linearGradient id="paint0_linear_1_110" x1="39.3868" y1="9.57333" x2="5.79252" y2="1.67787" gradientUnits="userSpaceOnUse">
<stop stop-color="#FFDB19"/>
<stop offset="1" stop-color="#FECC01"/>
</linearGradient>
<linearGradient id="paint1_linear_1_110" x1="16.9497" y1="-1.37779" x2="6.98606" y2="16.3655" gradientUnits="userSpaceOnUse">
<stop stop-color="#FFF500" stop-opacity="0.01"/>
<stop offset="1" stop-color="#D4A400" stop-opacity="0.649881"/>
</linearGradient>
</defs>
</svg>
